<svg width="24" height="24" viewBox="0 0 24 24" fill="none" xmlns="http://www.w3.org/2000/svg">
<path d="M12 22.7599C10.91 22.7599 9.83002 22.4399 8.98002 21.8099L4.68002 18.5999C3.54002 17.7499 2.65002 15.9699 2.65002 14.5599V7.11994C2.65002 5.57994 3.78002 3.93994 5.23002 3.39994L10.22 1.52994C11.21 1.15994 12.77 1.15994 13.76 1.52994L18.75 3.39994C20.2 3.93994 21.33 5.57994 21.33 7.11994V14.5499C21.33 15.9699 20.44 17.7399 19.3 18.5899L15 21.7999C14.17 22.4399 13.09 22.7599 12 22.7599ZM10.75 2.93994L5.76002 4.80994C4.91002 5.12994 4.16002 6.20994 4.16002 7.12994V14.5599C4.16002 15.5099 4.83002 16.8399 5.58002 17.3999L9.88002 20.6099C11.03 21.4699 12.97 21.4699 14.13 20.6099L18.43 17.3999C19.19 16.8299 19.85 15.5099 19.85 14.5599V7.11994C19.85 6.20994 19.1 5.12994 18.25 4.79994L13.26 2.92994C12.58 2.68994 11.42 2.68994 10.75 2.93994Z" fill="#292D32"/>
<path d="M14.15 14.19C13.96 14.19 13.77 14.12 13.62 13.97L9.36997 9.72001C9.07997 9.43001 9.07997 8.95 9.36997 8.66C9.65997 8.37 10.14 8.37 10.43 8.66L14.68 12.91C14.97 13.2 14.97 13.68 14.68 13.97C14.53 14.11 14.34 14.19 14.15 14.19Z" fill="#292D32"/>
<path d="M9.85004 14.23C9.66004 14.23 9.47004 14.16 9.32004 14.01C9.03004 13.72 9.03004 13.24 9.32004 12.95L13.57 8.70004C13.86 8.41004 14.34 8.41004 14.63 8.70004C14.92 8.99004 14.92 9.47004 14.63 9.76004L10.38 14.01C10.24 14.16 10.04 14.23 9.85004 14.23Z" fill="#292D32"/>
</svg>
