<svg width="20" height="18" viewBox="0 0 20 18" fill="none" xmlns="http://www.w3.org/2000/svg">
<path d="M0.75 6.14999C3.06 2.51999 6.44 0.429993 10 0.429993C11.78 0.429993 13.51 0.949993 15.09 1.91999C16.67 2.89999 18.09 4.32999 19.25 6.14999C20.25 7.71999 20.25 10.27 19.25 11.84C16.94 15.48 13.56 17.56 10 17.56C8.22 17.56 6.49 17.04 4.91 16.07C3.33 15.09 1.91 13.66 0.75 11.84C-0.25 10.28 -0.25 7.71999 0.75 6.14999ZM10 13.04C12.24 13.04 14.04 11.23 14.04 8.99999C14.04 6.76999 12.24 4.95999 10 4.95999C7.76 4.95999 5.96 6.76999 5.96 8.99999C5.96 11.23 7.76 13.04 10 13.04Z" fill="#C9CECF"/>
</svg>
